Coordinates
version=1
nRows=6
nColumns=40
inDegrees=yes

Units are S.I. units (second, meters, Newtons, ...)
If the header above contains a line with 'inDegrees', this indicates whether rotational values are in degrees (yes) or radians (no).

endheader
time	pelvis_tilt	pelvis_list	pelvis_rotation	pelvis_tx	pelvis_ty	pelvis_tz	hip_flexion_r	hip_adduction_r	hip_rotation_r	knee_angle_r	knee_angle_r_beta	ankle_angle_r	subtalar_angle_r	mtp_angle_r	hip_flexion_l	hip_adduction_l	hip_rotation_l	knee_angle_l	knee_angle_l_beta	ankle_angle_l	subtalar_angle_l	mtp_angle_l	lumbar_extension	lumbar_bending	lumbar_rotation	arm_flex_r	arm_add_r	arm_rot_r	elbow_flex_r	pro_sup_r	wrist_flex_r	wrist_dev_r	arm_flex_l	arm_add_l	arm_rot_l	elbow_flex_l	pro_sup_l	wrist_flex_l	wrist_dev_l
      8.65000000000000035527	     12.29889385770849763446	     -5.36812398431126247544	    179.74170257767156044793	      0.34026664355097657744	      0.87203891996922167085	     -0.62280396111507263512	     45.19952988632570622940	    -11.03356942309578414552	     -0.43396070779926471106	     33.49576388094874346280	      0.58461136519314949034	      1.96942356932930318081	      0.00000000000000000000	      0.00000000000000000000	     40.97804565043022506643	     -5.90239241932447633587	    -15.38338396997909462982	     31.43072153027168624817	      0.54856957698071151519	      1.10688503586686048941	      0.00000000000000000000	      0.00000000000000000000	    -52.43453607450768316767	     -4.55659340909488808080	     -9.58052049467571009700	     51.39279727530124119994	      3.69698084193742637638	     34.72475228009086833936	      4.09623705873282517587	      9.73008556606162677838	      0.00000000000000000000	      0.00000000000000000000	     56.83346083907725443396	    -12.69004587313164655882	     67.86098632407066588712	      3.59593180328920603017	     83.38568766638479701214	      0.00000000000000000000	      0.00000000000000000000
      8.65499999999999936051	     12.57369715687210032229	     -5.79681313552242905018	    179.75340366850608120330	      0.33965835473106914533	      0.87276634557138665915	     -0.62375147332307057102	     45.38499219030934028751	    -11.32429864036771682834	     -0.21476754346335755197	     33.27469456970695915743	      0.58075297783686430364	      1.88179023882719076433	      0.00000000000000000000	      0.00000000000000000000	     40.82061377086809272896	     -5.53525596521544116513	    -15.88510817845907396872	     30.71870584515976077000	      0.53614255894966522664	      0.68066705736459254261	      0.00000000000000000000	      0.00000000000000000000	    -51.91063457190883667636	     -5.00532543749359426499	     -9.87289414238865070672	     50.96766489376976494441	      3.80633065151224592171	     34.74226041918043961232	      4.11562699557897104796	      9.76065631326830107639	      0.00000000000000000000	      0.00000000000000000000	     56.50785052494084936825	    -12.80005911852373579052	     67.80292762826459807002	      3.59497226285640536503	     83.39327133972157923836	      0.00000000000000000000	      0.00000000000000000000
      8.66000000000000014211	     12.52982800247037786789	     -5.50255097828849226715	    179.74213297205750450303	      0.33994170444954263655	      0.87421331225319898195	     -0.62304913284179963551	     44.97674734712638411338	    -11.13654008200209410973	     -0.53424595257549012395	     32.65557415396254015150	      0.56994728811580797068	      1.37798701578303250947	      0.00000000000000000000	      0.00000000000000000000	     40.56331980661010305766	     -5.66492735395140467602	    -15.71920344780873612933	     30.22706185981970961052	      0.52756175265785465456	      0.40112541410129204378	      0.00000000000000000000	      0.00000000000000000000	    -51.72903026503438184136	     -4.70513020031048956326	     -9.63960629205385011176	     50.92350839124971173533	      3.71667898348621372762	     34.79078292071543643260	      4.09010824677853790377	      9.77030000290808331442	      0.00000000000000000000	      0.00000000000000000000	     56.26179049055713221605	    -12.70705643542768115140	     67.77777850236701340236	      3.62090239720139583923	     83.39250047763768236564	      0.00000000000000000000	      0.00000000000000000000
      8.66499999999999914735	     12.72578257804518386820	     -5.76293606922524226377	    179.75968697778299087986	      0.33930686419798689046	      0.87495000357008978487	     -0.62402994623557217491	     45.00816248273399367008	    -11.30595346091485176032	     -0.47747573329876547010	     32.36298483356147670520	      0.56484064111863685476	      1.28869227970726796251	      0.00000000000000000000	      0.00000000000000000000	     40.44271678562625282893	     -5.48180581422381862922	    -16.13917012107349790995	     29.73177291345893991092	      0.51891732979512561474	      0.00857176420403531723	      0.00000000000000000000	      0.00000000000000000000	    -51.26058171864217882785	     -5.02838316574537458337	     -9.75059981952081500367	     50.48066488202945834018	      3.76221892635638344160	     34.78096213798501423753	      4.06384348045048859888	      9.77669603454937075071	      0.00000000000000000000	      0.00000000000000000000	     55.97506766525081900454	    -12.74003572667484363024	     67.75556844186242244632	      3.59027946760872618270	     83.39731839438599081404	      0.00000000000000000000	      0.00000000000000000000
      8.66999999999999992895	     12.74902524076013676790	     -5.76413292096874929626	    179.75026204810779972831	      0.33923097977322597130	      0.87584853285864971983	     -0.62372302953003166959	     44.87656336126871536862	    -11.36555947272005795412	     -0.67082410257040447910	     32.10120531587752878977	      0.56027172662076929477	      1.10146974151598198155	      0.00000000000000000000	      0.00000000000000000000	     40.33292238792882500320	     -5.46264283563212860173	    -16.33904121478781235055	     29.52210993338985645096	      0.51525802047337687650	     -0.14190775542972691725	      0.00000000000000000000	      0.00000000000000000000	    -50.95380389037826063259	     -5.01069053908025452415	     -9.72347373286208593868	     50.29430553161441963539	      3.70426212787094888412	     34.76868071362373058264	      4.01204061660481858809	      9.77045556324267394643	      0.00000000000000000000	      0.00000000000000000000	     55.65536344390426393147	    -12.69026962571217431730	     67.74729201804238698514	      3.60595946340408568531	     83.40596035763262250384	      0.00000000000000000000	      0.00000000000000000000
      8.67500000000000071054	     12.52785795340866314973	     -5.45081328507729967470	    179.74601462077694691288	      0.33926451558829506805	      0.87776764307679644439	     -0.62309936310128710701	     44.19516484340614681514	    -11.16855060622049578001	     -1.06589735231276172556	     31.37084590473086720408	      0.54752455017333301335	      0.51167762843534236872	      0.00000000000000000000	      0.00000000000000000000	     39.75582750120304353914	     -5.54147971273512141011	    -16.08846804797156337941	     28.77967283038244517002	      0.50230004853692922229	     -0.46262047246119464283	      0.00000000000000000000	      0.00000000000000000000	    -50.97649100558559354113	     -4.68220807007773220931	     -9.46724502617408347760	     50.21171229580043160468	      3.54561902440788578872	     34.89393742011749566245	      4.09334029816630984300	      9.81246376806212872168	      0.00000000000000000000	      0.00000000000000000000	     55.49782787730809729965	    -12.58606200414249975950	     67.59812094476467336790	      3.58919077989125900885	     83.38918342779766135209	      0.00000000000000000000	      0.00000000000000000000
